<svg width="315" height="92" viewBox="0 0 315 92" fill="none" xmlns="http://www.w3.org/2000/svg">
<g clip-path="url(#clip0_310_61)">
<path d="M223.335 1.39852L221.925 5.13426C216.233 1.74443 209.23 -0.0147314 201.268 9.29208e-05C189.198 0.0198587 177.867 3.07862 168.221 8.88483C162.433 3.99279 153.372 1.52206 141.211 1.54677L33.8571 1.73949L0 90.8487L115.541 90.6412C127.177 90.6214 137.693 88.1556 146.239 83.4711C152.427 89.0155 161.464 92.0149 172.129 92.0001C178.232 91.9853 184.155 91.1699 189.828 89.5689L189.468 90.5127L281.113 90.3496L315 1.23546L223.335 1.39852Z" fill="url(#paint0_linear_310_61)"/>
<path d="M273.94 79.9725L204.507 80.096L205.866 76.5332L208.7 69.1111L201.608 73.6227C193.326 78.8755 183.95 81.5636 173.744 81.5784C163.293 81.5982 155.296 78.1145 151.222 71.7153L149.588 69.1556L146.794 71.399C139.642 77.1707 129.386 80.2294 117.165 80.2541L55.8086 80.3628L54.9889 77.1262L52.7597 68.192L49.1811 77.5759L48.1115 80.3727L15.0591 80.432L40.9992 12.1905L103.725 12.0769L139.552 12.0126C152.197 11.9929 160.129 14.933 163.098 20.7639L164.632 23.7535L167.671 21.263C176.243 14.2313 187.278 10.4808 199.609 10.461C209.695 10.4413 217.632 14.1325 221.97 20.8529L225.174 25.7845L227.478 19.6867L230.457 11.8594L299.886 11.7359L273.94 79.9823V79.9725Z" fill="url(#paint1_linear_310_61)"/>
<path d="M226.534 6.04833L223.875 13.0355C218.352 7.58512 210.24 4.64002 200.539 4.65484C187.908 4.67955 176.388 8.23739 166.981 14.9331C162.363 9.13674 153.467 6.17681 140.481 6.19657L104.66 6.26081L37.0559 6.38435L6.73242 86.179L116.276 85.9813C128.671 85.9615 139.422 83.0362 147.604 77.5116C152.932 83.8812 161.758 87.36 172.864 87.3402C181.691 87.3204 189.998 85.5119 197.67 81.9293L197.51 82.3592L196.19 85.8429L277.924 85.6996L308.268 5.90009L226.529 6.04339L226.534 6.04833ZM273.961 79.9428L204.532 80.0664L205.892 76.5135L208.715 69.0766L201.633 73.598C193.331 78.8458 183.975 81.534 173.774 81.5488C163.308 81.5686 155.311 78.07 151.232 71.6955L149.598 69.1359L146.814 71.3744C139.657 77.1509 129.391 80.1949 117.175 80.2196L55.8287 80.3283L55.004 77.0966L52.7749 68.1525L49.1862 77.566L48.1217 80.3431L15.0642 80.4024L41.0294 12.151L103.755 12.0374L139.577 11.9731C152.227 11.9534 160.164 14.9034 163.123 20.7294L164.667 23.719L167.696 21.2137C176.273 14.1918 187.304 10.4462 199.634 10.4215C209.71 10.4018 217.662 14.093 221.995 20.8134L225.194 25.74L227.508 19.6225L230.472 11.8002L299.921 11.6766L273.961 79.928V79.9428Z" fill="white"/>
<path d="M102.691 18.7725L80.7493 18.812L57.5831 36.5765L64.3455 18.8416L45.6426 18.8713L24.8306 73.6424L43.5234 73.6127L50.1309 56.2732L56.2236 51.7764L61.6565 73.5781L84.108 73.5386L74.0118 39.4327L102.691 18.7725Z" fill="white"/>
<path d="M157.2 29.3276C158.505 21.0407 149.988 18.6886 138.512 18.7084L111.253 18.7578L90.4307 73.5289L118.24 73.4795C133.294 73.4498 147.629 68.4194 149.928 53.8125C150.648 49.2515 148.913 45.6245 144.365 44.3941C149.753 41.8739 156.121 36.1616 157.2 29.3276ZM122.159 60.7058L113.992 60.7206L117.8 50.6104L123.753 50.6005C129.696 50.5906 133.029 51.0304 132.53 54.2276C131.68 59.6335 126.772 60.7009 122.164 60.7058H122.159ZM129.361 40.6287L121.574 40.6435L125.082 31.5216L131.66 31.5067C135.603 31.4969 138.432 31.7983 138.003 34.526C137.328 38.7954 133.069 40.6237 129.356 40.6287H129.361Z" fill="white"/>
<path d="M198.57 17.1715C181.116 17.2012 168.186 25.5028 161.374 39.581L179.117 39.5464C181.836 33.844 186.789 30.5826 192.647 30.5678C197.81 30.5579 199.894 33.8934 198.854 40.4903L187.039 40.51L183.25 50.4819L195.456 50.4572C192.607 56.461 188.024 61.4223 180.262 61.4371C174.394 61.447 173.279 57.9435 174.189 52.157L156.216 52.1867C155.996 53.0416 155.711 54.3263 155.556 55.3146C153.617 67.6386 160.869 74.8482 174.829 74.8186C200.569 74.7741 215.523 54.8254 218.092 38.4939C220.186 25.1816 212.109 17.1419 198.565 17.1617L198.57 17.1715Z" fill="white"/>
<path d="M271.472 18.4711L264.189 37.5748L246.501 37.6044L253.793 18.5008L235.09 18.5354L214.278 73.3015L232.966 73.2718L241.663 50.383L259.321 50.3534L250.654 73.2422L269.352 73.2076L290.174 18.4365L271.472 18.4711Z" fill="white"/>
</g>
<defs>
<linearGradient id="paint0_linear_310_61" x1="-31.1239" y1="46.0195" x2="269.16" y2="45.2243" gradientUnits="userSpaceOnUse">
<stop stop-color="#81170E"/>
<stop offset="0.5" stop-color="#C00E1A"/>
<stop offset="1" stop-color="#8B1711"/>
</linearGradient>
<linearGradient id="paint1_linear_310_61" x1="24.1186" y1="24.8288" x2="290.655" y2="68.3" gradientUnits="userSpaceOnUse">
<stop stop-color="#81170E"/>
<stop offset="0.5" stop-color="#C00E1A"/>
<stop offset="1" stop-color="#8B1711"/>
</linearGradient>
<clipPath id="clip0_310_61">
<rect width="315" height="92" fill="white"/>
</clipPath>
</defs>
</svg>
